<svg xmlns="http://www.w3.org/2000/svg" width="715.76" height="655.312" viewBox="0 0 715.76 655.312">
  <g id="Spaceshuttle_" data-name="Spaceshuttle " transform="translate(0.001 0)">
    <path id="Path_16" data-name="Path 16" d="M724.007,683.529l6.878,15.422c-5.591-.89-10.79,3.885-10.907,10.017s4.87,12.511,10.461,13.383c-1.068,4.761-5.68,6.86-9.682,8.784s-8.317,5.116-8.019,10.188c.239,4.073,3.607,7.669,7.184,9.115s7.33,1.224,10.952.981c-5.489,5.742-6.024,16.536-1.2,24.279s14.449,11.556,21.658,8.575c-5.094,6.336-3.987,17.94,2.334,24.479,6.372,6.592,15.608,7.23,23.681,6.535a104.885,104.885,0,0,0,56.319-22.319c6.172-4.9,11.937-10.672,15.458-18.2s4.558-17.049,1.279-25.611c.885,10.725,11.62,19.2,21.277,19.671s18.089-4.966,25.255-11.169c9.529-8.249,18.352-19.812,17.044-34.08-.647-7.063-3.732-13.856-6.758-20.436l-5.866-12.756c-2.368-5.15-4.79-10.387-8.354-14.708s-8.512-7.667-13.462-7.635c1.132-5.172,2.269-10.536,1.32-16.03s-4.581-11.184-9.521-12.471c-6.287-1.638-11.616,4.164-17.938,3.617-6.084-.526-11.112-6.632-17.02-9.052a13.625,13.625,0,0,0-14.7,2.543c-3.745,3.656-5.307,9.833-3.963,15.679,1.177,5.12,4.31,9.636,6.212,14.574s2.2,11.287-1.455,13.984c-4.407,3.254-11.116-1.174-14.559-6.531s-5.42-11.845-9.775-16.35c-5.139-5.318-13.183-6.564-18.475-2.862s-7.315,11.992-4.647,19.039c2.181,5.762,7.177,11.591,5.445,17.017-1.831,5.734-9.845,5.008-14.679.955s-8.044-10.157-12.819-14.3c-4.849-4.208-11.182-6.052-16.741-4.874a17.235,17.235,0,0,0-12.352,11.037" transform="translate(-265.437 -160.195)" fill="#e6e6e6"/>
    <path id="Path_17" data-name="Path 17" d="M859.926,635.683l-14.271,6.63a10.955,10.955,0,0,1-6.927.934,4.722,4.722,0,0,1-3.84-3.477l-3.321-15.51c-.627-2.926,1.8-6.387,5.761-8.229l7.881-3.662c3.965-1.842,8.174-1.462,10.005.9l9.712,12.54a4.722,4.722,0,0,1,.181,5.177A10.956,10.956,0,0,1,859.926,635.683Z" transform="translate(-289.998 -155.689)" fill="#6c63ff"/>
    <path id="Path_18" data-name="Path 18" d="M304.881,230.238a280.777,280.777,0,0,1,61.471-98.4c23.007-23.883,58.813-22.891,58.813-22.891l.2-.254a69.465,69.465,0,0,1,73.409-22.932c3.414.98,6.04,1.414,7.289.978,22.769-7.969,21.7-25.955,41.344-40.445,34.4-25.371,148.488,3.691,164.575,50.376,13.039,37.837,71.242,56.177,92.987,85.119q5.1,6.788,10.008,13.734,2.3,3.227,4.551,6.5a579.355,579.355,0,0,1,41.361,69.921,407.813,407.813,0,0,1,20.7,48.925c22.677,66.294,14.922,115.686-47.606,103.483q-11.1-2.173-21.672-3.887-15.3-2.5-29.542-4.105-19.172-2.18-36.48-2.857-5.82-.234-11.426-.314c-55.259-.766-96.249,9.634-127.475,25.779q-7.94,4.095-15.049,8.664a187.234,187.234,0,0,0-20.685,15.323A202.166,202.166,0,0,0,546.736,488.5l-.414.507c-36.523,44.675-48.543,94.133-73.949,102.841-108.6,37.231-177.292-97.732-184.336-229.756q-.534-9.979-.589-19.9-.033-4.435.044-8.847c.111-7.673.45-15.3,1.016-22.827q.317-4.319.736-8.592c.308-3.072.642-6.126,1.029-9.161C293.035,270.517,297.869,249.353,304.881,230.238Z" transform="translate(-177.469 -36.897)" fill="#3f3d56"/>
    <path id="Path_19" data-name="Path 19" d="M731.837,372.023c-8.673,4.038-8.816,22.125-6.1,27.986l4.928,10.608,31.416-14.6-4.929-10.608C754.432,379.554,740.517,368,731.837,372.023Z" transform="translate(-267.807 -106.043)" fill="#6c63ff"/>
    <path id="Path_20" data-name="Path 20" d="M626.5,542.806a3.436,3.436,0,0,1-1.449-6.551l162.243-75.38a3.434,3.434,0,1,1,2.895,6.229h0l-162.243,75.38A3.418,3.418,0,0,1,626.5,542.806Z" transform="translate(-246.891 -124.527)" fill="#3f3d56"/>
    <rect id="Rectangle_11" data-name="Rectangle 11" width="51.138" height="172.654" transform="translate(460.144 318.288) rotate(-24.92)" fill="#e6e6e6"/>
    <path id="Path_21" data-name="Path 21" d="M565.908,162.3c-8.673,4.038-8.816,22.125-6.1,27.986l4.928,10.608,31.416-14.6-4.929-10.608C588.5,169.828,574.588,158.272,565.908,162.3Z" transform="translate(-233.485 -62.663)" fill="#6c63ff"/>
    <path id="Path_22" data-name="Path 22" d="M805.5,658.378l-14.271,6.63a10.954,10.954,0,0,1-6.927.934,4.722,4.722,0,0,1-3.84-3.477l-3.321-15.509c-.627-2.926,1.8-6.387,5.762-8.23l7.881-3.662c3.965-1.842,8.174-1.462,10.005.9l9.712,12.54a4.722,4.722,0,0,1,.181,5.177A10.956,10.956,0,0,1,805.5,658.378Z" transform="translate(-278.74 -160.383)" fill="#6c63ff"/>
    <path id="Path_23" data-name="Path 23" d="M750.18,685.824l-14.271,6.63a10.955,10.955,0,0,1-6.927.934,4.722,4.722,0,0,1-3.84-3.477l-3.321-15.51c-.627-2.926,1.8-6.387,5.761-8.23l7.881-3.662c3.965-1.842,8.174-1.462,10.005.9l9.712,12.54a4.723,4.723,0,0,1,.181,5.177A10.954,10.954,0,0,1,750.18,685.824Z" transform="translate(-267.298 -166.06)" fill="#6c63ff"/>
    <rect id="Rectangle_12" data-name="Rectangle 12" width="51.138" height="349.002" transform="translate(340.91 178.576) rotate(-24.92)" fill="#e6e6e6"/>
    <path id="Path_24" data-name="Path 24" d="M547.594,400.345l-5.2-11.451,3-1.382,5.188,11.414L625.7,565.494l-2.993,1.39" transform="translate(-112.19 -80.154)" fill="#3f3d56"/>
    <path id="Path_25" data-name="Path 25" d="M621.594,388.344l-5.2-11.451,3-1.382,5.188,11.414L699.7,553.494l-2.993,1.391" transform="translate(-127.497 -77.672)" fill="#3f3d56"/>
    <path id="Path_26" data-name="Path 26" d="M644.271,254.408l-62.838,29.2c-4-6.224-16.061-38.119-13.353-47.582L566.047,227l43.388-20.159,5.808,7.144C623.864,216.627,640.647,246.586,644.271,254.408Z" transform="translate(-235.098 -72.048)" fill="#e6e6e6"/>
    <path id="Path_27" data-name="Path 27" d="M609.694,201.539l-44.774,20.8c-1.653.768-3.413.486-3.931-.631a1.549,1.549,0,0,1-.137-.51l-2.317-24.721a3.305,3.305,0,0,1,2.19-2.9l29.693-13.8a3.306,3.306,0,0,1,3.629.2l17.4,17.714c.89.906.407,2.457-1.079,3.464a4.821,4.821,0,0,1-.673.38Z" transform="translate(-233.542 -66.362)" fill="#e6e6e6"/>
    <path id="Path_28" data-name="Path 28" d="M658.9,428.634a6.053,6.053,0,0,1-1.439-.17,4.445,4.445,0,0,1-3.091-2.4l-27.374-58.918c-1.133-2.439.388-5.558,3.39-6.953l40.083-18.623c3-1.4,6.367-.545,7.5,1.893l27.374,58.918a4.444,4.444,0,0,1-.159,3.909,6.747,6.747,0,0,1-3.232,3.044l-40.083,18.622A7.074,7.074,0,0,1,658.9,428.634Z" transform="translate(-247.626 -99.777)" fill="#6c63ff"/>
    <rect id="Rectangle_13" data-name="Rectangle 13" width="51.138" height="172.654" transform="translate(370.378 359.322) rotate(-24.92)" fill="#e6e6e6"/>
    <path id="Path_29" data-name="Path 29" d="M596.34,206.973l-13.6,6.319c-2.624,1.219-6.165-.813-7.892-4.529s-1-7.733,1.629-8.952l13.6-6.319c2.624-1.219,6.165.812,7.892,4.529S598.965,205.754,596.34,206.973Z" transform="translate(-236.725 -69.214)" fill="#6c63ff"/>
    <path id="Path_30" data-name="Path 30" d="M619.8,423.227c-8.673,4.038-8.816,22.125-6.1,27.986l4.929,10.608,31.416-14.6-4.928-10.609C642.4,430.758,628.482,419.2,619.8,423.227Z" transform="translate(-244.633 -116.634)" fill="#6c63ff"/>
    <path id="Path_31" data-name="Path 31" d="M439.013,376.554c-3.063,2.041-6.2-2.817-3.076-4.767C439,369.746,442.135,374.6,439.013,376.554Z" transform="translate(-207.918 -106.065)" fill="#e6e6e6"/>
    <path id="Path_32" data-name="Path 32" d="M841.013,288.554c-3.063,2.041-6.2-2.817-3.076-4.767C841,281.746,844.135,286.6,841.013,288.554Z" transform="translate(-291.069 -87.863)" fill="#e6e6e6"/>
    <path id="Path_33" data-name="Path 33" d="M567.013,358.554c-3.063,2.041-6.2-2.817-3.076-4.767C567,351.746,570.135,356.6,567.013,358.554Z" transform="translate(-234.394 -102.342)" fill="#e6e6e6"/>
    <path id="Path_34" data-name="Path 34" d="M439.013,598.554c-3.063,2.041-6.2-2.817-3.076-4.767C439,591.746,442.135,596.6,439.013,598.554Z" transform="translate(-207.918 -151.984)" fill="#e6e6e6"/>
    <path id="Path_35" data-name="Path 35" d="M636.013,97.554c-3.063,2.041-6.2-2.817-3.076-4.767C636,90.746,639.135,95.6,636.013,97.554Z" transform="translate(-248.666 -48.356)" fill="#e6e6e6"/>
    <path id="Path_36" data-name="Path 36" d="M446.013,215.554c-3.063,2.041-6.2-2.817-3.076-4.767C446,208.746,449.135,213.6,446.013,215.554Z" transform="translate(-209.366 -72.763)" fill="#e6e6e6"/>
    <path id="Path_37" data-name="Path 37" d="M570.209,145.506l-1.949-.428.427-1.95-1.3-.285-.427,1.95-1.949-.427-.285,1.3,1.949.428-.427,1.949,1.3.285.427-1.95,1.949.428Z" transform="translate(-116.81 -29.546)" fill="#e6e6e6"/>
    <path id="Path_38" data-name="Path 38" d="M170.112,350.284l-1.949-.428.427-1.949-1.3-.285-.428,1.949-1.95-.427-.285,1.3,1.95.428-.427,1.95,1.3.284.428-1.949,1.949.427Z" transform="translate(-34.053 -71.904)" fill="#e6e6e6"/>
    <path id="Path_39" data-name="Path 39" d="M819.629,484.478a6.75,6.75,0,0,1-8.955-3.273l-8.021-17.263a6.742,6.742,0,0,1,12.228-5.681l8.021,17.263A6.75,6.75,0,0,1,819.629,484.478Z" transform="translate(-283.908 -123.246)" fill="#6c63ff"/>
    <path id="Path_40" data-name="Path 40" d="M647.629,564.478a6.75,6.75,0,0,1-8.955-3.273l-8.021-17.263a6.742,6.742,0,1,1,12.228-5.681l8.021,17.263A6.75,6.75,0,0,1,647.629,564.478Z" transform="translate(-248.331 -139.793)" fill="#6c63ff"/>
    <path id="Path_41" data-name="Path 41" d="M791.549,434.2,737.768,459.19c-3.424-5.327-13.746-32.625-11.428-40.724l1.138-9.06,32.112-15.755,7.116,5.953C776.73,396.215,791.467,421.058,791.549,434.2Z" transform="translate(-268.184 -110.689)" fill="#e6e6e6"/>
    <path id="Path_42" data-name="Path 42" d="M770.891,437.875l-13.6,6.319c-2.625,1.219-6.618-1.787-8.9-6.7s-2-9.9.62-11.123l13.6-6.319c2.624-1.219,6.618,1.787,8.9,6.7S773.516,436.655,770.891,437.875Z" transform="translate(-272.495 -116.094)" fill="#6c63ff"/>
    <path id="Path_43" data-name="Path 43" d="M481.594,443.345l-5.2-11.451,3-1.382,5.188,11.414L559.7,608.494l-2.992,1.39" transform="translate(-98.538 -89.049)" fill="#3f3d56"/>
    <path id="Path_44" data-name="Path 44" d="M678.826,485.406l-53.781,24.987c-7.934-4.1-20.06-30.9-11.428-40.724l1.138-9.06,32.112-15.755,7.116,5.953C661.361,453.071,675.725,478.712,678.826,485.406Z" transform="translate(-244.322 -121.28)" fill="#e6e6e6"/>
    <path id="Path_45" data-name="Path 45" d="M657.7,486.685,644.1,493c-2.625,1.219-6.37-1.252-8.347-5.509s-1.451-8.713,1.173-9.932l13.6-6.319c2.625-1.219,6.369,1.252,8.347,5.509S660.321,485.466,657.7,486.685Z" transform="translate(-249.267 -126.674)" fill="#6c63ff"/>
    <circle id="Ellipse_31" data-name="Ellipse 31" cx="81.695" cy="81.695" r="81.695" transform="translate(54.165 80.779)" fill="#ff6584"/>
    <path id="Path_46" data-name="Path 46" d="M740.972,311.208l49.646-145L736.1,309.472a2.73,2.73,0,1,0,4.868,1.736Z" transform="translate(-270.151 -63.645)" fill="#f0f0f0" opacity="0.3"/>
    <path id="Path_47" data-name="Path 47" d="M746.164,220.723q-14.578,4.845-32.322,9.519c-61.188,16.11-143.2,28.676-230.94,35.385s-170.709,6.757-233.635.138c-30.653-3.225-54.9-7.863-72.061-13.786-18.171-6.27-27.719-13.826-28.379-22.457-1.286-16.815,31.895-31.614,59.956-41.068l.76,2.255c-38.535,12.983-59.255,26.7-58.343,38.632,1.161,15.194,37,27.607,98.316,34.058,62.788,6.6,145.608,6.554,233.2-.144s169.462-19.24,230.515-35.314c59.624-15.7,93.156-33.415,92-48.609-.965-12.615-25.831-23.406-70.018-30.388l.372-2.35c32.107,5.073,70.664,14.839,72.019,32.556.66,8.631-7.628,17.551-24.635,26.51C773.274,210.767,760.957,215.806,746.164,220.723Z" transform="translate(-148.791 -59.587)" fill="#666389"/>
    <circle id="Ellipse_32" data-name="Ellipse 32" cx="8.489" cy="8.489" r="8.489" transform="translate(612.89 289.053)" fill="#ff6584"/>
    <circle id="Ellipse_33" data-name="Ellipse 33" cx="8.489" cy="8.489" r="8.489" transform="translate(666.824 519.068)" fill="#f2f2f2"/>
    <circle id="Ellipse_34" data-name="Ellipse 34" cx="16.55" cy="16.55" r="16.55" transform="translate(369.261 554.63)" fill="#f2f2f2"/>
    <circle id="Ellipse_35" data-name="Ellipse 35" cx="8.489" cy="8.489" r="8.489" transform="translate(251.21 351.712)" fill="#6c63ff"/>
    <path id="Path_48" data-name="Path 48" d="M687.226,478.768l36.625,9.481,22.463,44.122-37.976,1.49Z" transform="translate(-142.149 -99.03)" fill="#e6e6e6"/>
    <path id="Path_49" data-name="Path 49" d="M580.645,398.574,600.8,418.742,652,529.431l-9.426,8.143Z" transform="translate(-120.103 -82.443)" fill="#ccc"/>
    <path id="Path_50" data-name="Path 50" d="M525.386,421.624l1.582,28.471L575.29,562.068l12.354-1.591Z" transform="translate(-108.673 -87.21)" fill="#ccc"/>
    <path id="Path_51" data-name="Path 51" d="M518.579,566.637,498.854,598.92l14.541,47.327,28.326-25.339Z" transform="translate(-103.185 -117.205)" fill="#e6e6e6"/>
    <path id="Path_52" data-name="Path 52" d="M743.547,576.36q-15.362,0-33.675-1.161c-63.146-4.01-144.94-17.951-230.314-39.255S315.431,488.518,257.8,462.391c-28.072-12.728-49.617-24.775-64.036-35.809C178.5,414.9,171.825,404.72,173.92,396.321c4.083-16.362,40.238-19.942,69.849-20.063l.01,2.379c-40.664.167-64.653,6.652-67.55,18.26-3.69,14.785,26.4,37.866,82.557,63.327,57.5,26.07,136.11,52.142,221.349,73.412s166.881,35.187,229.888,39.188c61.532,3.908,98.941-2.33,102.63-17.115,3.063-12.275-17.131-30.358-56.861-50.919l1.094-2.113c28.868,14.94,62.378,36.368,58.076,53.609-2.1,8.4-12.774,14.249-31.739,17.388C772.414,575.463,759.136,576.36,743.547,576.36Z" transform="translate(-153.911 -107.091)" fill="#73709a"/>
  </g>
</svg>
