<svg xmlns="http://www.w3.org/2000/svg" width="147.708" height="196.943" viewBox="0 0 147.708 196.943">
  <g id="spaceshuttle" transform="translate(211.708 196.943) rotate(180)">
    <path id="Path_332" data-name="Path 332" d="M116.16,218.426a3.077,3.077,0,0,1,3.073-2.915h.158V125l-5.1,5.1a24.46,24.46,0,0,0-7.209,17.407v3.477a33.639,33.639,0,0,1-9.914,23.936L72.111,199.97A27.508,27.508,0,0,0,64,219.552V230.9h51.5Z" transform="translate(0 -76.916)" fill="#e4e4e4"/>
    <path id="Path_333" data-name="Path 333" d="M64,400v9.232a9.242,9.242,0,0,0,9.232,9.232h41.3L115.5,400Z" transform="translate(0 -246.138)" fill="#ff6584"/>
    <path id="Path_334" data-name="Path 334" d="M351.28,199.97l-25.057-25.055a33.638,33.638,0,0,1-9.914-23.936V147.5a24.46,24.46,0,0,0-7.209-17.407L304,125v90.515h.158a3.073,3.073,0,0,1,2.589,1.42,3.037,3.037,0,0,1,.2.35,3.071,3.071,0,0,1,.286,1.145l.058,1.108.6,11.363h51.5V219.553A27.512,27.512,0,0,0,351.28,199.97Z" transform="translate(-147.683 -76.916)" fill="#e4e4e4"/>
    <path id="Path_335" data-name="Path 335" d="M315.077,418.463h41.3a9.242,9.242,0,0,0,9.232-9.232V400h-51.5Z" transform="translate(-153.901 -246.138)" fill="#ff6584"/>
    <path id="Path_336" data-name="Path 336" d="M214.154,138.476V27.7h.058a3.073,3.073,0,0,1,1.477-3.25,21.78,21.78,0,0,1,21.547,0,3.073,3.073,0,0,1,1.477,3.25h.058V138.476h6.155V18.463a18.463,18.463,0,0,0-36.927,0V138.476Z" transform="translate(-88.61)" fill="#6c63ff"/>
    <path id="Path_337" data-name="Path 337" d="M248.618,72h-.058A3.075,3.075,0,0,1,244,74.075a15.545,15.545,0,0,0-15.38,0A3.073,3.073,0,0,1,224.058,72H224V182.781h9.232V167.395a3.077,3.077,0,0,1,3.077-3.077h0a3.077,3.077,0,0,1,3.077,3.077v15.386h9.232V72Z" transform="translate(-98.455 -44.305)" fill="#e4e4e4"/>
    <path id="Path_338" data-name="Path 338" d="M215.355,360H199.811a3.077,3.077,0,0,0-3.073,2.915l-.656,12.471-.972,18.463-.162,3.077h20.407Z" transform="translate(-80.578 -221.522)" fill="#2f2e41"/>
    <path id="Path_339" data-name="Path 339" d="M192.436,484.217l.637-12.1-.637,12.1a3.058,3.058,0,0,0,.279,1.446A3.058,3.058,0,0,1,192.436,484.217Z" transform="translate(-79.03 -290.512)" fill="#5952c7"/>
    <path id="Path_340" data-name="Path 340" d="M311.142,363.691a3.036,3.036,0,0,1,.2.35A3.185,3.185,0,0,0,311.142,363.691Z" transform="translate(-152.078 -223.795)" fill="#5952c7"/>
    <path id="Path_341" data-name="Path 341" d="M213.806,462.155V456H193.4l-.326,6.2-.637,12.1a3.074,3.074,0,0,0,3.073,3.239h21.375V465.232A3.077,3.077,0,0,1,213.806,462.155Z" transform="translate(-79.03 -280.597)" fill="#393581"/>
    <path id="Path_342" data-name="Path 342" d="M259.077,456v6.155A3.077,3.077,0,0,1,256,465.232h0v12.309h21.541a3.077,3.077,0,0,0,3.073-3.239l-.963-18.3H259.077Z" transform="translate(-118.146 -280.597)" fill="#5952c7"/>
    <path id="Path_343" data-name="Path 343" d="M282.675,364.02l-.058-1.108A3.085,3.085,0,0,0,279.544,360H264v36.927h20.407l-.162-3.077-.972-18.463Z" transform="translate(-123.069 -221.522)" fill="#45495d"/>
    <path id="Path_344" data-name="Path 344" d="M228.622,64.316a15.545,15.545,0,0,1,15.38,0,3.077,3.077,0,0,0,3.083-5.325,21.78,21.78,0,0,0-21.547,0,3.077,3.077,0,1,0,3.083,5.325Z" transform="translate(-98.458 -34.545)" fill="#393581"/>
    <path id="Path_345" data-name="Path 345" d="M251.077,312h0A3.077,3.077,0,0,0,248,315.077v58.468a3.077,3.077,0,0,0,3.077,3.077h0a3.077,3.077,0,0,0,3.077-3.077V315.077A3.077,3.077,0,0,0,251.077,312Z" transform="translate(-113.223 -191.988)" fill="#41c8f2"/>
  </g>
</svg>

